<svg width="65" height="65" viewBox="0 0 65 65" fill="none" xmlns="http://www.w3.org/2000/svg">
<g clip-path="url(#clip0_1_133)">
<path d="M64.8401 32.75C64.8401 15.0769 50.5132 0.75 32.8401 0.75C15.167 0.75 0.840088 15.0769 0.840088 32.75C0.840088 50.4231 15.167 64.75 32.8401 64.75C50.5132 64.75 64.8401 50.4231 64.8401 32.75Z" fill="black"/>
<path d="M25.348 23.914C25.2773 23.7027 25.1419 23.5189 24.961 23.3887C24.7801 23.2585 24.5629 23.1885 24.34 23.1885C24.1171 23.1885 23.8999 23.2585 23.719 23.3887C23.5382 23.5189 23.4028 23.7027 23.332 23.914L18.019 39.852C17.966 40.0118 17.9516 40.1818 17.9771 40.3482C18.0027 40.5146 18.0674 40.6726 18.1659 40.8091C18.2644 40.9456 18.394 41.0568 18.5438 41.1334C18.6937 41.2101 18.8597 41.25 19.028 41.25H29.653C29.8213 41.2501 29.9873 41.2101 30.1372 41.1335C30.287 41.0568 30.4165 40.9457 30.515 40.8091C30.6134 40.6726 30.678 40.5146 30.7034 40.3482C30.7288 40.1817 30.7143 40.0117 30.661 39.852L25.348 23.914ZM20.502 39.125L24.34 27.61L28.178 39.125H20.502ZM43.465 25.844C43.465 24.4781 43.06 23.1429 42.3011 22.0072C41.5423 20.8715 40.4637 19.9864 39.2018 19.4637C37.9399 18.941 36.5513 18.8042 35.2117 19.0707C33.8721 19.3372 32.6416 19.9949 31.6757 20.9607C30.7099 21.9265 30.0522 23.1571 29.7857 24.4967C29.5192 25.8363 29.656 27.2249 30.1787 28.4868C30.7014 29.7487 31.5866 30.8273 32.7222 31.5861C33.8579 32.345 35.1931 32.75 36.559 32.75C38.3899 32.7479 40.1453 32.0196 41.44 30.7249C42.7346 29.4303 43.4629 27.6749 43.465 25.844ZM31.777 25.844C31.777 24.5757 32.2808 23.3594 33.1776 22.4626C34.0744 21.5658 35.2907 21.062 36.559 21.062C37.8273 21.062 39.0436 21.5658 39.9404 22.4626C40.8372 23.3594 41.341 24.5757 41.341 25.844C41.3228 27.1001 40.8111 28.2987 39.9164 29.1806C39.0216 30.0625 37.8158 30.5568 36.5595 30.5568C35.3032 30.5568 34.0974 30.0625 33.2027 29.1806C32.3079 28.2987 31.7952 27.1001 31.777 25.844ZM45.59 34.875H33.902C33.7625 34.875 33.6243 34.9025 33.4954 34.9559C33.3665 35.0094 33.2493 35.0877 33.1507 35.1864C33.0521 35.2851 32.9739 35.4023 32.9206 35.5313C32.8673 35.6602 32.8399 35.7984 32.84 35.938V43.375C32.8399 43.5146 32.8673 43.6529 32.9207 43.7819C32.974 43.911 33.0523 44.0282 33.1511 44.1269C33.2498 44.2257 33.367 44.304 33.4961 44.3573C33.6251 44.4107 33.7634 44.4381 33.903 44.438H45.59C45.8719 44.438 46.1423 44.326 46.3417 44.1266C46.541 43.9273 46.653 43.6569 46.653 43.375V35.937C46.6527 35.6552 46.5406 35.3851 46.3413 35.186C46.142 34.9868 45.8718 34.875 45.59 34.875ZM44.527 42.313H34.965V37H44.528L44.527 42.313Z" fill="white"/>
</g>
<defs>
<clipPath id="clip0_1_133">
<rect width="64" height="64" fill="white" transform="translate(0.840088 0.75)"/>
</clipPath>
</defs>
</svg>
