<svg width="167" height="73" viewBox="0 0 167 73" fill="none" xmlns="http://www.w3.org/2000/svg">
<g id="Layer_1" clip-path="url(#clip0_59_22)">
<path id="Vector" d="M120.288 23.8818C116.153 23.8818 112.411 25.5402 109.679 28.2412C106.889 30.9914 105.166 34.8007 105.166 39.0204C105.166 44.8246 100.448 49.5534 94.6387 49.5534C92.4069 49.5534 90.331 48.8556 88.6325 47.6652L105.617 28.315L103.599 26.8291C100.99 24.908 97.888 23.89 94.6387 23.89C86.2941 23.89 79.5166 30.6794 79.5166 39.0286C79.5166 47.3778 86.3023 54.159 94.6387 54.159C102.975 54.159 109.761 47.3696 109.761 39.0286C109.761 36.6314 110.565 34.423 111.911 32.6497C113.839 30.1294 116.875 28.4957 120.288 28.4957C123.439 28.4957 126.401 29.8913 128.411 32.3296L131.956 29.4069C129.068 25.9096 124.817 23.8983 120.288 23.8983V23.8818ZM84.1115 39.0204C84.1115 33.208 88.8295 28.4874 94.6387 28.4874C96.0336 28.4874 97.3875 28.7584 98.6511 29.2756L85.5064 44.2499C84.6202 42.7065 84.1115 40.9168 84.1115 39.0204ZM131.981 48.6257C129.092 52.1394 124.834 54.1508 120.296 54.1508C116.235 54.1508 112.354 52.5006 109.531 49.6437C110.475 48.3055 111.254 46.8442 111.829 45.2762C113.806 47.9525 116.973 49.5452 120.296 49.5452C123.619 49.5452 126.417 48.1413 128.436 45.7031L131.989 48.6257H131.981Z" fill="url(#paint0_linear_59_22)"/>
<path id="Vector_2" d="M10.5929 54.0275C6.66267 54.0275 3.46265 50.8258 3.46265 46.8934V24.3825H8.05755V46.8934C8.05755 48.289 9.18986 49.4219 10.5847 49.4219C11.9796 49.4219 13.1119 48.289 13.1119 46.8934V36.5821C13.1119 29.6449 18.7489 24.0049 25.6823 24.0049H26.2074C33.1408 24.0049 38.7777 29.6449 38.7777 36.5821V53.8223H34.1828V36.5821C34.1828 32.1817 30.6054 28.6105 26.2156 28.6105H25.6905C21.2925 28.6105 17.7232 32.1899 17.7232 36.5821V46.8934C17.7232 50.8258 14.5232 54.0275 10.5929 54.0275Z" fill="url(#paint1_linear_59_22)"/>
<path id="Vector_3" d="M63.6312 24.0049H53.145V54.0275H63.6312C71.9021 54.0275 78.6303 47.2956 78.6303 39.0203C78.6303 30.745 71.9021 24.0131 63.6312 24.0131V24.0049ZM63.6312 49.4219H57.7399V28.6023H63.6312C69.3667 28.6023 74.0354 33.2736 74.0354 39.0121C74.0354 44.7506 69.3667 49.4219 63.6312 49.4219Z" fill="url(#paint2_linear_59_22)"/>
<path id="Vector_4" d="M51.1183 24.3826H46.5234V53.8223H51.1183V24.3826Z" fill="url(#paint3_linear_59_22)"/>
<path id="Vector_5" d="M54.9421 0C46.663 0 39.9266 6.74012 39.9266 15.0154V18.5045H39.8691V23.1019H39.9266V57.7712C39.9266 63.518 35.2578 68.1893 29.5142 68.1893H27.1921V72.7867H29.5142C37.7932 72.7867 44.5215 66.0466 44.5215 57.7712V23.1101H51.1184V18.5127H44.5215V15.0236C44.5215 9.27689 49.1902 4.60561 54.9338 4.60561H57.2559V0H54.9338H54.9421Z" fill="url(#paint4_linear_59_22)"/>
<path id="Vector_6" d="M140.53 38.027L165.023 23.8818H155.825L139.858 33.1013V23.8818H135.254V35.7612V40.3011V53.3298H139.858V42.9528L157.802 53.3298H167L140.53 38.027Z" fill="url(#paint5_linear_59_22)"/>
<path id="Vector_7" d="M5.53026 21.5092C4.93128 21.5092 4.3241 21.4106 3.72512 21.2054C2.67486 20.8442 1.77229 20.1792 1.10767 19.3008C0.98459 19.1284 1.01741 18.8903 1.18151 18.7671C1.35382 18.644 1.59177 18.6768 1.71485 18.841C2.28921 19.6045 3.06871 20.171 3.97128 20.483C6.45744 21.345 9.18156 20.0232 10.0431 17.5357C10.3795 16.567 10.3959 15.5325 10.0923 14.5556C10.0267 14.3504 10.1416 14.1369 10.3467 14.0712C10.5518 14.0056 10.7652 14.1205 10.8308 14.3257C11.1836 15.4587 11.1672 16.6573 10.7734 17.782C9.97747 20.0725 7.82771 21.5092 5.53846 21.5092H5.53026Z" fill="url(#paint6_linear_59_22)"/>
<path id="Vector_8" d="M0.516953 17.5195C0.344645 17.5195 0.188746 17.3964 0.14772 17.224C-0.0902299 16.206 -0.0327937 15.1469 0.311824 14.1618C0.795929 12.7661 1.79696 11.6414 3.1262 10.9928C4.45544 10.3443 5.95699 10.254 7.36007 10.7383C8.22982 11.0421 9.01752 11.5593 9.63291 12.2325C9.7724 12.3885 9.76419 12.6348 9.60829 12.7743C9.45239 12.9139 9.20624 12.9057 9.06675 12.7497C8.53341 12.1668 7.86059 11.7235 7.10571 11.4608C5.89955 11.0421 4.61134 11.1242 3.46261 11.6742C2.31389 12.2325 1.45234 13.2012 1.04208 14.408C0.746698 15.2618 0.697467 16.1731 0.902597 17.0516C0.951828 17.2568 0.820545 17.462 0.615415 17.5113C0.582595 17.5113 0.557979 17.5195 0.525158 17.5195H0.516953Z" fill="url(#paint7_linear_59_22)"/>
</g>
<defs>
<linearGradient id="paint0_linear_59_22" x1="79.5084" y1="39.0204" x2="131.972" y2="39.0204" gradientUnits="userSpaceOnUse">
<stop stop-color="#F0B61B"/>
<stop offset="1" stop-color="#F26E51"/>
</linearGradient>
<linearGradient id="paint1_linear_59_22" x1="3.47085" y1="39.0203" x2="38.7859" y2="39.0203" gradientUnits="userSpaceOnUse">
<stop stop-color="#3D68B1"/>
<stop offset="1" stop-color="#2269B2"/>
</linearGradient>
<linearGradient id="paint2_linear_59_22" x1="53.145" y1="39.0203" x2="78.6385" y2="39.0203" gradientUnits="userSpaceOnUse">
<stop stop-color="#3D68B1"/>
<stop offset="1" stop-color="#2269B2"/>
</linearGradient>
<linearGradient id="paint3_linear_59_22" x1="46.5234" y1="39.1024" x2="51.1265" y2="39.1024" gradientUnits="userSpaceOnUse">
<stop stop-color="#3D68B1"/>
<stop offset="1" stop-color="#2269B2"/>
</linearGradient>
<linearGradient id="paint4_linear_59_22" x1="27.1839" y1="36.4015" x2="57.2641" y2="36.4015" gradientUnits="userSpaceOnUse">
<stop stop-color="#3D68B1"/>
<stop offset="1" stop-color="#2269B2"/>
</linearGradient>
<linearGradient id="paint5_linear_59_22" x1="135.254" y1="38.6017" x2="167" y2="38.6017" gradientUnits="userSpaceOnUse">
<stop stop-color="#3D68B1"/>
<stop offset="1" stop-color="#2269B2"/>
</linearGradient>
<linearGradient id="paint6_linear_59_22" x1="1.03382" y1="17.782" x2="11.077" y2="17.782" gradientUnits="userSpaceOnUse">
<stop stop-color="#3E6BB3"/>
<stop offset="1" stop-color="#2269B2"/>
</linearGradient>
<linearGradient id="paint7_linear_59_22" x1="2.70181e-05" y1="13.9729" x2="9.72316" y2="13.9729" gradientUnits="userSpaceOnUse">
<stop stop-color="#F0B61B"/>
<stop offset="1" stop-color="#F26E51"/>
</linearGradient>
<clipPath id="clip0_59_22">
<rect width="167" height="72.7949" fill="white"/>
</clipPath>
</defs>
</svg>
