<svg width="65" height="65" viewBox="0 0 65 65" fill="none" xmlns="http://www.w3.org/2000/svg">
<g id="svg1821993373_483" clip-path="url(#clip0_1_146)">
<path id="Vector" d="M64.28 32.75C64.28 15.0769 49.9531 0.75 32.28 0.75C14.6069 0.75 0.280029 15.0769 0.280029 32.75C0.280029 50.4231 14.6069 64.75 32.28 64.75C49.9531 64.75 64.28 50.4231 64.28 32.75Z" fill="black"/>
<path id="Vector_2" d="M26.613 32.75H39.363M26.613 32.75L23.78 29.916H18.113L20.947 32.75L18.113 35.583H23.78L26.613 32.75ZM39.363 32.75L36.53 29.916M39.363 32.75L36.53 35.583M37.947 47.625C41.859 47.625 45.03 40.965 45.03 32.75C45.03 24.535 41.859 17.875 37.947 17.875C34.035 17.875 30.863 24.535 30.863 32.75C30.863 40.965 34.035 47.625 37.947 47.625Z" stroke="white" stroke-width="2.125" stroke-linecap="round" stroke-linejoin="round"/>
</g>
<defs>
<clipPath id="clip0_1_146">
<rect width="64" height="64" fill="white" transform="translate(0.280029 0.75)"/>
</clipPath>
</defs>
</svg>
