<svg width="116" height="21" viewBox="0 0 116 21" fill="none" xmlns="http://www.w3.org/2000/svg">
<g id="svg1145448235_8458" clip-path="url(#clip0_1_48)">
<g id="Clip path group">
<mask id="mask0_1_48" style="mask-type:luminance" maskUnits="userSpaceOnUse" x="0" y="0" width="20" height="21">
<g id="svg1145448235_8458_clip0_408_62493">
<path id="Vector" d="M20 0.379883H0V20.3799H20V0.379883Z" fill="white"/>
</g>
</mask>
<g mask="url(#mask0_1_48)">
<g id="Group">
<path id="Vector_2" d="M9.53841 1.98986C9.70921 1.57922 10.291 1.57922 10.4618 1.98986L12.5279 6.95734C12.5999 7.13046 12.7627 7.24875 12.9496 7.26373L18.3124 7.69366C18.7557 7.7292 18.9355 8.28246 18.5977 8.57179L14.5118 12.0718C14.3694 12.1938 14.3072 12.3852 14.3507 12.5675L15.599 17.8007C15.7022 18.2333 15.2316 18.5753 14.852 18.3434L10.2607 15.5391C10.1007 15.4414 9.89945 15.4414 9.73944 15.5391L5.14813 18.3434C4.76858 18.5753 4.29795 18.2333 4.40115 17.8007L5.64946 12.5675C5.69296 12.3852 5.63077 12.1938 5.48838 12.0718L1.40248 8.57179C1.06471 8.28246 1.24448 7.7292 1.6878 7.69366L7.05061 7.26373C7.23751 7.24875 7.40031 7.13046 7.47232 6.95734L9.53841 1.98986Z" fill="#F2F4F7"/>
<g id="Clip path group_2">
<mask id="mask1_1_48" style="mask-type:luminance" maskUnits="userSpaceOnUse" x="0" y="0" width="20" height="21">
<g id="svg1145448235_8458_clip1_408_62493">
<path id="Vector_3" d="M20 0.379883H0V20.3799H20V0.379883Z" fill="white"/>
</g>
</mask>
<g mask="url(#mask1_1_48)">
<g id="Group_2">
<path id="Vector_4" d="M9.53841 1.98986C9.70921 1.57922 10.291 1.57922 10.4618 1.98986L12.5279 6.95734C12.5999 7.13046 12.7627 7.24875 12.9496 7.26373L18.3124 7.69366C18.7557 7.7292 18.9355 8.28246 18.5977 8.57179L14.5118 12.0718C14.3694 12.1938 14.3072 12.3852 14.3507 12.5675L15.599 17.8007C15.7022 18.2333 15.2316 18.5753 14.852 18.3434L10.2607 15.5391C10.1007 15.4414 9.89945 15.4414 9.73944 15.5391L5.14813 18.3434C4.76858 18.5753 4.29795 18.2333 4.40115 17.8007L5.64946 12.5675C5.69296 12.3852 5.63077 12.1938 5.48838 12.0718L1.40248 8.57179C1.06471 8.28246 1.24448 7.7292 1.6878 7.69366L7.05061 7.26373C7.23751 7.24875 7.40031 7.13046 7.47232 6.95734L9.53841 1.98986Z" fill="#FEC84B"/>
</g>
</g>
</g>
</g>
</g>
</g>
<g id="Clip path group_3">
<mask id="mask2_1_48" style="mask-type:luminance" maskUnits="userSpaceOnUse" x="24" y="0" width="20" height="21">
<g id="svg1145448235_8458_clip2_408_62493">
<path id="Vector_5" d="M44 0.379883H24V20.3799H44V0.379883Z" fill="white"/>
</g>
</mask>
<g mask="url(#mask2_1_48)">
<g id="Group_3">
<path id="Vector_6" d="M33.5384 1.98986C33.7092 1.57922 34.291 1.57922 34.4618 1.98986L36.5279 6.95734C36.5999 7.13046 36.7627 7.24875 36.9496 7.26373L42.3124 7.69366C42.7557 7.7292 42.9355 8.28246 42.5977 8.57179L38.5118 12.0718C38.3694 12.1938 38.3072 12.3852 38.3507 12.5675L39.599 17.8007C39.7022 18.2333 39.2316 18.5753 38.852 18.3434L34.2607 15.5391C34.1007 15.4414 33.8995 15.4414 33.7395 15.5391L29.1482 18.3434C28.7686 18.5753 28.298 18.2333 28.4012 17.8007L29.6495 12.5675C29.693 12.3852 29.6308 12.1938 29.4884 12.0718L25.4025 8.57179C25.0647 8.28246 25.2445 7.7292 25.6878 7.69366L31.0506 7.26373C31.2375 7.24875 31.4003 7.13046 31.4723 6.95734L33.5384 1.98986Z" fill="#F2F4F7"/>
<g id="Clip path group_4">
<mask id="mask3_1_48" style="mask-type:luminance" maskUnits="userSpaceOnUse" x="24" y="0" width="20" height="21">
<g id="svg1145448235_8458_clip3_408_62493">
<path id="Vector_7" d="M44 0.379883H24V20.3799H44V0.379883Z" fill="white"/>
</g>
</mask>
<g mask="url(#mask3_1_48)">
<g id="Group_4">
<path id="Vector_8" d="M33.5384 1.98986C33.7092 1.57922 34.291 1.57922 34.4618 1.98986L36.5279 6.95734C36.5999 7.13046 36.7627 7.24875 36.9496 7.26373L42.3124 7.69366C42.7557 7.7292 42.9355 8.28246 42.5977 8.57179L38.5118 12.0718C38.3694 12.1938 38.3072 12.3852 38.3507 12.5675L39.599 17.8007C39.7022 18.2333 39.2316 18.5753 38.852 18.3434L34.2607 15.5391C34.1007 15.4414 33.8995 15.4414 33.7395 15.5391L29.1482 18.3434C28.7686 18.5753 28.298 18.2333 28.4012 17.8007L29.6495 12.5675C29.693 12.3852 29.6308 12.1938 29.4884 12.0718L25.4025 8.57179C25.0647 8.28246 25.2445 7.7292 25.6878 7.69366L31.0506 7.26373C31.2375 7.24875 31.4003 7.13046 31.4723 6.95734L33.5384 1.98986Z" fill="#FEC84B"/>
</g>
</g>
</g>
</g>
</g>
</g>
<g id="Clip path group_5">
<mask id="mask4_1_48" style="mask-type:luminance" maskUnits="userSpaceOnUse" x="48" y="0" width="20" height="21">
<g id="svg1145448235_8458_clip4_408_62493">
<path id="Vector_9" d="M68 0.379883H48V20.3799H68V0.379883Z" fill="white"/>
</g>
</mask>
<g mask="url(#mask4_1_48)">
<g id="Group_5">
<path id="Vector_10" d="M57.5384 1.98986C57.7092 1.57922 58.291 1.57922 58.4618 1.98986L60.5279 6.95734C60.5999 7.13046 60.7627 7.24875 60.9496 7.26373L66.3124 7.69366C66.7557 7.7292 66.9355 8.28246 66.5977 8.57179L62.5118 12.0718C62.3694 12.1938 62.3072 12.3852 62.3507 12.5675L63.599 17.8007C63.7022 18.2333 63.2316 18.5753 62.852 18.3434L58.2607 15.5391C58.1007 15.4414 57.8995 15.4414 57.7395 15.5391L53.1482 18.3434C52.7686 18.5753 52.298 18.2333 52.4012 17.8007L53.6495 12.5675C53.693 12.3852 53.6308 12.1938 53.4884 12.0718L49.4025 8.57179C49.0647 8.28246 49.2445 7.7292 49.6878 7.69366L55.0506 7.26373C55.2375 7.24875 55.4003 7.13046 55.4723 6.95734L57.5384 1.98986Z" fill="#F2F4F7"/>
<g id="Clip path group_6">
<mask id="mask5_1_48" style="mask-type:luminance" maskUnits="userSpaceOnUse" x="48" y="0" width="20" height="21">
<g id="svg1145448235_8458_clip5_408_62493">
<path id="Vector_11" d="M68 0.379883H48V20.3799H68V0.379883Z" fill="white"/>
</g>
</mask>
<g mask="url(#mask5_1_48)">
<g id="Group_6">
<path id="Vector_12" d="M57.5384 1.98986C57.7092 1.57922 58.291 1.57922 58.4618 1.98986L60.5279 6.95734C60.5999 7.13046 60.7627 7.24875 60.9496 7.26373L66.3124 7.69366C66.7557 7.7292 66.9355 8.28246 66.5977 8.57179L62.5118 12.0718C62.3694 12.1938 62.3072 12.3852 62.3507 12.5675L63.599 17.8007C63.7022 18.2333 63.2316 18.5753 62.852 18.3434L58.2607 15.5391C58.1007 15.4414 57.8995 15.4414 57.7395 15.5391L53.1482 18.3434C52.7686 18.5753 52.298 18.2333 52.4012 17.8007L53.6495 12.5675C53.693 12.3852 53.6308 12.1938 53.4884 12.0718L49.4025 8.57179C49.0647 8.28246 49.2445 7.7292 49.6878 7.69366L55.0506 7.26373C55.2375 7.24875 55.4003 7.13046 55.4723 6.95734L57.5384 1.98986Z" fill="#FEC84B"/>
</g>
</g>
</g>
</g>
</g>
</g>
<g id="Clip path group_7">
<mask id="mask6_1_48" style="mask-type:luminance" maskUnits="userSpaceOnUse" x="72" y="0" width="20" height="21">
<g id="svg1145448235_8458_clip6_408_62493">
<path id="Vector_13" d="M92 0.379883H72V20.3799H92V0.379883Z" fill="white"/>
</g>
</mask>
<g mask="url(#mask6_1_48)">
<g id="Group_7">
<path id="Vector_14" d="M81.5384 1.98986C81.7092 1.57922 82.291 1.57922 82.4618 1.98986L84.5279 6.95734C84.5999 7.13046 84.7627 7.24875 84.9496 7.26373L90.3124 7.69366C90.7557 7.7292 90.9355 8.28246 90.5977 8.57179L86.5118 12.0718C86.3694 12.1938 86.3072 12.3852 86.3507 12.5675L87.599 17.8007C87.7022 18.2333 87.2316 18.5753 86.852 18.3434L82.2607 15.5391C82.1007 15.4414 81.8995 15.4414 81.7395 15.5391L77.1482 18.3434C76.7686 18.5753 76.298 18.2333 76.4012 17.8007L77.6495 12.5675C77.693 12.3852 77.6308 12.1938 77.4884 12.0718L73.4025 8.57179C73.0647 8.28246 73.2445 7.7292 73.6878 7.69366L79.0506 7.26373C79.2375 7.24875 79.4003 7.13046 79.4723 6.95734L81.5384 1.98986Z" fill="#F2F4F7"/>
<g id="Clip path group_8">
<mask id="mask7_1_48" style="mask-type:luminance" maskUnits="userSpaceOnUse" x="72" y="0" width="20" height="21">
<g id="svg1145448235_8458_clip7_408_62493">
<path id="Vector_15" d="M92 0.379883H72V20.3799H92V0.379883Z" fill="white"/>
</g>
</mask>
<g mask="url(#mask7_1_48)">
<g id="Group_8">
<path id="Vector_16" d="M81.5384 1.98986C81.7092 1.57922 82.291 1.57922 82.4618 1.98986L84.5279 6.95734C84.5999 7.13046 84.7627 7.24875 84.9496 7.26373L90.3124 7.69366C90.7557 7.7292 90.9355 8.28246 90.5977 8.57179L86.5118 12.0718C86.3694 12.1938 86.3072 12.3852 86.3507 12.5675L87.599 17.8007C87.7022 18.2333 87.2316 18.5753 86.852 18.3434L82.2607 15.5391C82.1007 15.4414 81.8995 15.4414 81.7395 15.5391L77.1482 18.3434C76.7686 18.5753 76.298 18.2333 76.4012 17.8007L77.6495 12.5675C77.693 12.3852 77.6308 12.1938 77.4884 12.0718L73.4025 8.57179C73.0647 8.28246 73.2445 7.7292 73.6878 7.69366L79.0506 7.26373C79.2375 7.24875 79.4003 7.13046 79.4723 6.95734L81.5384 1.98986Z" fill="#FEC84B"/>
</g>
</g>
</g>
</g>
</g>
</g>
<g id="Clip path group_9">
<mask id="mask8_1_48" style="mask-type:luminance" maskUnits="userSpaceOnUse" x="96" y="0" width="20" height="21">
<g id="svg1145448235_8458_clip8_408_62493">
<path id="Vector_17" d="M116 0.379883H96V20.3799H116V0.379883Z" fill="white"/>
</g>
</mask>
<g mask="url(#mask8_1_48)">
<g id="Group_9">
<path id="Vector_18" d="M105.538 1.98986C105.709 1.57922 106.291 1.57922 106.462 1.98986L108.528 6.95734C108.6 7.13046 108.763 7.24875 108.949 7.26373L114.312 7.69366C114.756 7.7292 114.935 8.28246 114.598 8.57179L110.512 12.0718C110.369 12.1938 110.307 12.3852 110.351 12.5675L111.599 17.8007C111.702 18.2333 111.231 18.5753 110.852 18.3434L106.261 15.5391C106.101 15.4414 105.899 15.4414 105.739 15.5391L101.148 18.3434C100.769 18.5753 100.298 18.2333 100.401 17.8007L101.649 12.5675C101.693 12.3852 101.631 12.1938 101.488 12.0718L97.4025 8.57179C97.0647 8.28246 97.2445 7.7292 97.6878 7.69366L103.051 7.26373C103.237 7.24875 103.4 7.13046 103.472 6.95734L105.538 1.98986Z" fill="#F2F4F7"/>
<g id="Clip path group_10">
<mask id="mask9_1_48" style="mask-type:luminance" maskUnits="userSpaceOnUse" x="96" y="0" width="20" height="21">
<g id="svg1145448235_8458_clip9_408_62493">
<path id="Vector_19" d="M116 0.379883H96V20.3799H116V0.379883Z" fill="white"/>
</g>
</mask>
<g mask="url(#mask9_1_48)">
<g id="Group_10">
<path id="Vector_20" d="M105.538 1.98986C105.709 1.57922 106.291 1.57922 106.462 1.98986L108.528 6.95734C108.6 7.13046 108.763 7.24875 108.949 7.26373L114.312 7.69366C114.756 7.7292 114.935 8.28246 114.598 8.57179L110.512 12.0718C110.369 12.1938 110.307 12.3852 110.351 12.5675L111.599 17.8007C111.702 18.2333 111.231 18.5753 110.852 18.3434L106.261 15.5391C106.101 15.4414 105.899 15.4414 105.739 15.5391L101.148 18.3434C100.769 18.5753 100.298 18.2333 100.401 17.8007L101.649 12.5675C101.693 12.3852 101.631 12.1938 101.488 12.0718L97.4025 8.57179C97.0647 8.28246 97.2445 7.7292 97.6878 7.69366L103.051 7.26373C103.237 7.24875 103.4 7.13046 103.472 6.95734L105.538 1.98986Z" fill="#FEC84B"/>
</g>
</g>
</g>
</g>
</g>
</g>
</g>
<defs>
<clipPath id="clip0_1_48">
<rect width="116" height="20" fill="white" transform="translate(0 0.379883)"/>
</clipPath>
</defs>
</svg>
